<svg xmlns="http://www.w3.org/2000/svg" version="1.1" xmlns:xlink="http://www.w3.org/1999/xlink" xmlns:svgjs="http://svgjs.dev/svgjs" width="1920" height="1080" preserveAspectRatio="none" viewBox="0 0 1920 1080"><g mask="url(&quot;#SvgjsMask1038&quot;)" fill="none"><rect width="1920" height="1080" x="0" y="0" fill="rgba(28, 159, 250, 1)"></rect><path d="M0,724.938C157.579,738.269,325.635,798.353,464.813,723.263C605.873,647.158,683.281,486.332,727.697,332.328C768.622,190.432,706.348,46.621,702.543,-101.01C698.086,-273.96,796.162,-463.469,703.422,-609.519C610.568,-755.749,412.698,-793.807,242.425,-825.622C83.752,-855.27,-85.223,-854.957,-230.192,-783.964C-365.167,-717.865,-436.196,-575.571,-521.234,-451.652C-597.013,-341.225,-686.638,-233.866,-699.189,-100.528C-711.484,30.087,-635.33,146.254,-589.07,269.019C-539.058,401.741,-529.04,561.865,-416.878,648.675C-302.854,736.925,-143.673,712.784,0,724.938" fill="#0587e2"></path><path d="M1920 1879.529C2071.908 1883.2179999999998 2211.025 1813.187 2344.3940000000002 1740.37 2486.629 1662.712 2648.487 1590.8310000000001 2717.404 1444.162 2786.499 1297.115 2767.56 1117.843 2707.9210000000003 966.7139999999999 2654.083 830.285 2506.176 766.072 2407.129 657.9 2311.67 553.647 2269.693 390 2136.504 342.655 2002.495 295.019 1858.576 366.95500000000004 1724.846 415.36800000000005 1598.34 461.16600000000005 1461.772 505.70799999999997 1383.614 615.219 1307.7060000000001 721.577 1327.1950000000002 862.825 1312.8029999999999 992.698 1298.9270000000001 1117.913 1268.0149999999999 1241.143 1300.769 1362.7930000000001 1337.333 1498.591 1400.673 1629.969 1508.65 1720.074 1623.893 1816.242 1769.946 1875.885 1920 1879.529" fill="#4ab3fb"></path></g><defs><mask id="SvgjsMask1038"><rect width="1920" height="1080" fill="#ffffff"></rect></mask></defs></svg>