<?xml version="1.0" standalone="no"?>
<svg xmlns:xlink="http://www.w3.org/1999/xlink" id="wave" style="transform:rotate(180deg); transition: 0.3s" viewBox="0 0 1440 210" version="1.1" xmlns="http://www.w3.org/2000/svg"><defs><linearGradient id="sw-gradient-0" x1="0" x2="0" y1="1" y2="0"><stop stop-color="rgba(28, 159, 250, 1)" offset="0%"/><stop stop-color="rgba(11, 255, 245.356, 1)" offset="100%"/></linearGradient></defs><path style="transform:translate(0, 0px); opacity:1" fill="url(#sw-gradient-0)" d="M0,42L26.7,59.5C53.3,77,107,112,160,122.5C213.3,133,267,119,320,101.5C373.3,84,427,63,480,70C533.3,77,587,112,640,126C693.3,140,747,133,800,115.5C853.3,98,907,70,960,80.5C1013.3,91,1067,140,1120,164.5C1173.3,189,1227,189,1280,161C1333.3,133,1387,77,1440,49C1493.3,21,1547,21,1600,45.5C1653.3,70,1707,119,1760,136.5C1813.3,154,1867,140,1920,129.5C1973.3,119,2027,112,2080,105C2133.3,98,2187,91,2240,77C2293.3,63,2347,42,2400,52.5C2453.3,63,2507,105,2560,108.5C2613.3,112,2667,77,2720,59.5C2773.3,42,2827,42,2880,35C2933.3,28,2987,14,3040,7C3093.3,0,3147,0,3200,21C3253.3,42,3307,84,3360,91C3413.3,98,3467,70,3520,80.5C3573.3,91,3627,140,3680,164.5C3733.3,189,3787,189,3813,189L3840,189L3840,210L3813.3,210C3786.7,210,3733,210,3680,210C3626.7,210,3573,210,3520,210C3466.7,210,3413,210,3360,210C3306.7,210,3253,210,3200,210C3146.7,210,3093,210,3040,210C2986.7,210,2933,210,2880,210C2826.7,210,2773,210,2720,210C2666.7,210,2613,210,2560,210C2506.7,210,2453,210,2400,210C2346.7,210,2293,210,2240,210C2186.7,210,2133,210,2080,210C2026.7,210,1973,210,1920,210C1866.7,210,1813,210,1760,210C1706.7,210,1653,210,1600,210C1546.7,210,1493,210,1440,210C1386.7,210,1333,210,1280,210C1226.7,210,1173,210,1120,210C1066.7,210,1013,210,960,210C906.7,210,853,210,800,210C746.7,210,693,210,640,210C586.7,210,533,210,480,210C426.7,210,373,210,320,210C266.7,210,213,210,160,210C106.7,210,53,210,27,210L0,210Z"/></svg>