<svg xmlns="http://www.w3.org/2000/svg" version="1.1" xmlns:xlink="http://www.w3.org/1999/xlink" xmlns:svgjs="http://svgjs.dev/svgjs" width="900" height="1200" preserveAspectRatio="none" viewBox="0 0 900 1200"><g mask="url(&quot;#SvgjsMask1127&quot;)" fill="none"><rect width="900" height="1200" x="0" y="0" fill="rgba(28, 159, 250, 1)"></rect><path d="M0,520.3C95.604,507.981,170.023,442.311,254.946,396.704C348.299,346.57,477.089,334.33,523.587,239.114C570.049,143.971,501.599,34.774,482.554,-69.381C464.348,-168.949,474.585,-277.677,414.234,-358.936C352.175,-442.495,253.756,-496.889,151.324,-515.362C53.725,-532.963,-44.445,-499.538,-134.448,-457.888C-215.151,-420.541,-273.992,-354.976,-335.022,-290.298C-398.801,-222.707,-489.26,-164.159,-498.833,-71.721C-508.383,20.489,-415.1,87.961,-383.211,175.007C-347.558,272.327,-377.98,398.957,-300.982,468.337C-223.782,537.898,-103.064,533.58,0,520.3" fill="#0587e2"></path><path d="M900 1733.748C999.146 1750.249 1093.458 1686.902 1176.967 1630.969 1259.283 1575.835 1328.536 1504.505 1373.826 1416.3890000000001 1420.603 1325.38 1458.6509999999998 1222.883 1438.252 1122.611 1418.233 1024.212 1344.355 945.418 1265.391 883.387 1195.311 828.336 1102.84 824.6990000000001 1019.348 793.539 927.699 759.3340000000001 846.741 673.079 750.6220000000001 691.2660000000001 654.08 709.533 584.4010000000001 799.202 536.381 884.923 493.128 962.134 517.94 1055.975 498.011 1142.203 475.524 1239.495 371.81500000000005 1331.4470000000001 412.056 1422.837 452.158 1513.91 592.634 1494.212 676.556 1547.686 759.985 1600.846 802.4159999999999 1717.507 900 1733.748" fill="#4ab3fb"></path></g><defs><mask id="SvgjsMask1127"><rect width="900" height="1200" fill="#ffffff"></rect></mask></defs></svg>