<svg xmlns="http://www.w3.org/2000/svg" version="1.1" xmlns:xlink="http://www.w3.org/1999/xlink" xmlns:svgjs="http://svgjs.dev/svgjs" width="1920" height="1080" preserveAspectRatio="none" viewBox="0 0 1920 1080"><g mask="url(&quot;#SvgjsMask1010&quot;)" fill="none"><rect width="1920" height="1080" x="0" y="0" fill="rgba(28, 159, 250, 1)"></rect><path d="M 0,176 C 76.8,241.4 230.4,510.6 384,503 C 537.6,495.4 614.4,141.4 768,138 C 921.6,134.6 998.4,497.6 1152,486 C 1305.6,474.4 1382.4,72.8 1536,80 C 1689.6,87.2 1843.2,433.6 1920,522L1920 1080L0 1080z" fill="#184a7e"></path><path d="M 0,606 C 55,694.4 165,1024.4 275,1048 C 385,1071.6 440,741.8 550,724 C 660,706.2 715,946 825,959 C 935,972 990,766 1100,789 C 1210,812 1265,1081 1375,1074 C 1485,1067 1541,798.6 1650,754 C 1759,709.4 1866,831.6 1920,851L1920 1080L0 1080z" fill="#2264ab"></path></g><defs><mask id="SvgjsMask1010"><rect width="1920" height="1080" fill="#ffffff"></rect></mask></defs></svg>