<?xml version="1.0" standalone="no"?>
<svg xmlns:xlink="http://www.w3.org/1999/xlink" id="wave" style="transform:rotate(180deg); transition: 0.3s" viewBox="0 0 1440 460" version="1.1" xmlns="http://www.w3.org/2000/svg"><defs><linearGradient id="sw-gradient-0" x1="0" x2="0" y1="1" y2="0"><stop stop-color="rgba(62, 182.702, 243, 1)" offset="0%"/><stop stop-color="rgba(33.416, 239.418, 238.255, 1)" offset="100%"/></linearGradient></defs><path style="transform:translate(0, 0px); opacity:1" fill="url(#sw-gradient-0)" d="M0,92L13.3,84.3C26.7,77,53,61,80,92C106.7,123,133,199,160,214.7C186.7,230,213,184,240,161C266.7,138,293,138,320,130.3C346.7,123,373,107,400,99.7C426.7,92,453,92,480,145.7C506.7,199,533,307,560,291.3C586.7,276,613,138,640,115C666.7,92,693,184,720,199.3C746.7,215,773,153,800,161C826.7,169,853,245,880,230C906.7,215,933,107,960,84.3C986.7,61,1013,123,1040,184C1066.7,245,1093,307,1120,314.3C1146.7,322,1173,276,1200,237.7C1226.7,199,1253,169,1280,153.3C1306.7,138,1333,138,1360,138C1386.7,138,1413,138,1440,168.7C1466.7,199,1493,261,1520,260.7C1546.7,261,1573,199,1600,191.7C1626.7,184,1653,230,1680,268.3C1706.7,307,1733,337,1760,345C1786.7,353,1813,337,1840,283.7C1866.7,230,1893,138,1907,92L1920,46L1920,460L1906.7,460C1893.3,460,1867,460,1840,460C1813.3,460,1787,460,1760,460C1733.3,460,1707,460,1680,460C1653.3,460,1627,460,1600,460C1573.3,460,1547,460,1520,460C1493.3,460,1467,460,1440,460C1413.3,460,1387,460,1360,460C1333.3,460,1307,460,1280,460C1253.3,460,1227,460,1200,460C1173.3,460,1147,460,1120,460C1093.3,460,1067,460,1040,460C1013.3,460,987,460,960,460C933.3,460,907,460,880,460C853.3,460,827,460,800,460C773.3,460,747,460,720,460C693.3,460,667,460,640,460C613.3,460,587,460,560,460C533.3,460,507,460,480,460C453.3,460,427,460,400,460C373.3,460,347,460,320,460C293.3,460,267,460,240,460C213.3,460,187,460,160,460C133.3,460,107,460,80,460C53.3,460,27,460,13,460L0,460Z"/><defs><linearGradient id="sw-gradient-1" x1="0" x2="0" y1="1" y2="0"><stop stop-color="rgba(0, 144.133, 255, 1)" offset="0%"/><stop stop-color="rgba(133.586, 213.023, 232.588, 1)" offset="100%"/></linearGradient></defs><path style="transform:translate(0, 50px); opacity:0.9" fill="url(#sw-gradient-1)" d="M0,92L13.3,122.7C26.7,153,53,215,80,253C106.7,291,133,307,160,260.7C186.7,215,213,107,240,99.7C266.7,92,293,184,320,199.3C346.7,215,373,153,400,130.3C426.7,107,453,123,480,130.3C506.7,138,533,138,560,161C586.7,184,613,230,640,214.7C666.7,199,693,123,720,138C746.7,153,773,261,800,283.7C826.7,307,853,245,880,230C906.7,215,933,245,960,268.3C986.7,291,1013,307,1040,329.7C1066.7,353,1093,383,1120,360.3C1146.7,337,1173,261,1200,253C1226.7,245,1253,307,1280,329.7C1306.7,353,1333,337,1360,291.3C1386.7,245,1413,169,1440,184C1466.7,199,1493,307,1520,337.3C1546.7,368,1573,322,1600,260.7C1626.7,199,1653,123,1680,122.7C1706.7,123,1733,199,1760,230C1786.7,261,1813,245,1840,222.3C1866.7,199,1893,169,1907,153.3L1920,138L1920,460L1906.7,460C1893.3,460,1867,460,1840,460C1813.3,460,1787,460,1760,460C1733.3,460,1707,460,1680,460C1653.3,460,1627,460,1600,460C1573.3,460,1547,460,1520,460C1493.3,460,1467,460,1440,460C1413.3,460,1387,460,1360,460C1333.3,460,1307,460,1280,460C1253.3,460,1227,460,1200,460C1173.3,460,1147,460,1120,460C1093.3,460,1067,460,1040,460C1013.3,460,987,460,960,460C933.3,460,907,460,880,460C853.3,460,827,460,800,460C773.3,460,747,460,720,460C693.3,460,667,460,640,460C613.3,460,587,460,560,460C533.3,460,507,460,480,460C453.3,460,427,460,400,460C373.3,460,347,460,320,460C293.3,460,267,460,240,460C213.3,460,187,460,160,460C133.3,460,107,460,80,460C53.3,460,27,460,13,460L0,460Z"/></svg>